<svg width="19" height="18" viewBox="0 0 19 18" fill="none" xmlns="http://www.w3.org/2000/svg">
<g clip-path="url(#clip0_8512_2413)">
<path d="M6.20344 0.539961C5.08344 0.539961 4.04344 0.819962 3.08344 1.37996C2.12344 1.93996 1.37344 2.68996 0.833438 3.62996C0.293437 4.56996 0.0234375 5.59996 0.0234375 6.71996C0.0234375 8.11996 0.963437 10.28 2.84344 13.2C3.84344 14.68 4.86344 16.06 5.90344 17.34C5.98344 17.42 6.08344 17.46 6.20344 17.46C6.32344 17.46 6.42344 17.42 6.50344 17.34C7.54344 16.06 8.56344 14.68 9.56344 13.2C11.4434 10.28 12.3834 8.11996 12.3834 6.71996C12.3834 5.59996 12.1134 4.56996 11.5734 3.62996C11.0334 2.68996 10.2834 1.93996 9.32344 1.37996C8.36344 0.819962 7.32344 0.539961 6.20344 0.539961ZM6.20344 16.5C5.00344 14.98 3.94344 13.52 3.02344 12.12C1.50344 9.67996 0.743437 7.87996 0.743437 6.71996C0.743437 5.75996 0.983437 4.85996 1.46344 4.01996C1.94344 3.17996 2.60344 2.50996 3.44344 2.00996C4.28344 1.50996 5.20344 1.25996 6.20344 1.25996C7.20344 1.25996 8.12344 1.50996 8.96344 2.00996C9.80344 2.50996 10.4634 3.17996 10.9434 4.01996C11.4234 4.85996 11.6634 5.75996 11.6634 6.71996C11.6634 7.87996 10.9034 9.67996 9.38344 12.12C8.46344 13.52 7.40344 14.98 6.20344 16.5ZM6.20344 4.01996C5.52344 4.01996 4.93344 4.26996 4.43344 4.76996C3.93344 5.26996 3.68344 5.86996 3.68344 6.56996C3.68344 7.26996 3.93344 7.85996 4.43344 8.33996C4.93344 8.81996 5.52344 9.05996 6.20344 9.05996C6.88344 9.05996 7.47344 8.81996 7.97344 8.33996C8.47344 7.85996 8.72344 7.26996 8.72344 6.56996C8.72344 5.86996 8.47344 5.26996 7.97344 4.76996C7.47344 4.26996 6.88344 4.01996 6.20344 4.01996ZM6.20344 8.33996C5.68344 8.33996 5.25344 8.16996 4.91344 7.82996C4.57344 7.48996 4.40344 7.06996 4.40344 6.56996C4.40344 6.06996 4.57344 5.63996 4.91344 5.27996C5.25344 4.91996 5.68344 4.73996 6.20344 4.73996C6.72344 4.73996 7.15344 4.91996 7.49344 5.27996C7.83344 5.63996 8.00344 6.06996 8.00344 6.56996C8.00344 7.06996 7.83344 7.48996 7.49344 7.82996C7.15344 8.16996 6.72344 8.33996 6.20344 8.33996Z" fill="#5751E1"/>
</g>
<defs>
<clipPath id="clip0_8512_2413">
<rect width="18" height="18" fill="white" transform="matrix(1 0 0 -1 0.0234375 18)"/>
</clipPath>
</defs>
</svg>
