<svg width="21" height="21" viewBox="0 0 21 21" fill="none" xmlns="http://www.w3.org/2000/svg">
<path d="M17.1292 3.71361C16.1958 2.78027 15.1181 2.05805 13.8958 1.54694C12.6736 1.03583 11.3958 0.780272 10.0625 0.780272C8.72917 0.780272 7.45139 1.03583 6.22917 1.54694C5.00694 2.05805 3.92917 2.78027 2.99583 3.71361C2.0625 4.64694 1.34028 5.72472 0.829167 6.94694C0.318056 8.16916 0.0625 9.44694 0.0625 10.7803C0.0625 12.1136 0.318056 13.3914 0.829167 14.6136C1.34028 15.8358 2.0625 16.9136 2.99583 17.8469C3.92917 18.7803 5.00694 19.5025 6.22917 20.0136C7.45139 20.5247 8.72917 20.7803 10.0625 20.7803C11.3958 20.7803 12.6736 20.5247 13.8958 20.0136C15.1181 19.5025 16.1958 18.7803 17.1292 17.8469C18.0625 16.9136 18.7847 15.8358 19.2958 14.6136C19.8069 13.3914 20.0625 12.1136 20.0625 10.7803C20.0625 9.44694 19.8069 8.16916 19.2958 6.94694C18.7847 5.72472 18.0625 4.64694 17.1292 3.71361ZM5.0625 18.0469C5.28472 16.8469 5.8625 15.8469 6.79583 15.0469C7.72917 14.2469 8.81806 13.8469 10.0625 13.8469C11.3069 13.8469 12.3958 14.2469 13.3292 15.0469C14.2625 15.8469 14.8403 16.8469 15.0625 18.0469C13.5514 19.0692 11.8847 19.5803 10.0625 19.5803C8.24028 19.5803 6.57361 19.0692 5.0625 18.0469ZM6.8625 9.51361C6.8625 8.62472 7.17361 7.86916 7.79583 7.24694C8.41806 6.62472 9.17361 6.31361 10.0625 6.31361C10.9514 6.31361 11.7069 6.62472 12.3292 7.24694C12.9514 7.86916 13.2625 8.62472 13.2625 9.51361C13.2625 10.4025 12.9514 11.1581 12.3292 11.7803C11.7069 12.4025 10.9514 12.7136 10.0625 12.7136C9.17361 12.7136 8.41806 12.4025 7.79583 11.7803C7.17361 11.1581 6.8625 10.4025 6.8625 9.51361ZM16.0625 17.2469C15.7514 16.0914 15.1514 15.1136 14.2625 14.3136C13.7292 13.8247 13.1292 13.4469 12.4625 13.1803C13.0403 12.7803 13.5069 12.2581 13.8625 11.6136C14.2181 10.9692 14.3958 10.2581 14.3958 9.48027C14.3958 8.70249 14.2069 7.98027 13.8292 7.31361C13.4514 6.64694 12.9292 6.12472 12.2625 5.74694C11.5958 5.36916 10.8625 5.18027 10.0625 5.18027C9.2625 5.18027 8.52917 5.36916 7.8625 5.74694C7.19583 6.12472 6.67361 6.64694 6.29583 7.31361C5.91806 7.98027 5.72917 8.70249 5.72917 9.48027C5.72917 10.2581 5.90694 10.9692 6.2625 11.6136C6.61806 12.2581 7.08472 12.7803 7.6625 13.1803C6.99583 13.4469 6.39583 13.8247 5.8625 14.3136C4.97361 15.1136 4.37361 16.0914 4.0625 17.2469C3.17361 16.4469 2.48472 15.4803 1.99583 14.3469C1.50694 13.2136 1.2625 12.0247 1.2625 10.7803C1.2625 9.18027 1.65139 7.70249 2.42917 6.34694C3.20694 4.99138 4.27361 3.92472 5.62917 3.14694C6.98472 2.36916 8.4625 1.98027 10.0625 1.98027C11.6625 1.98027 13.1403 2.36916 14.4958 3.14694C15.8514 3.92472 16.9181 4.99138 17.6958 6.34694C18.4736 7.70249 18.8625 9.18027 18.8625 10.7803C18.8625 12.0247 18.6181 13.2136 18.1292 14.3469C17.6403 15.4803 16.9514 16.4469 16.0625 17.2469Z" fill="#5751E1"/>
</svg>
