<svg width="20" height="21" viewBox="0 0 20 21" fill="none" xmlns="http://www.w3.org/2000/svg">
<path d="M17.4 2.31361H15.6V1.38027C15.6 1.2025 15.5444 1.05805 15.4333 0.946939C15.3222 0.835829 15.1778 0.780272 15 0.780272C14.8222 0.780272 14.6778 0.835829 14.5667 0.946939C14.4556 1.05805 14.4 1.2025 14.4 1.38027V2.31361H5.6V1.38027C5.6 1.2025 5.54444 1.05805 5.43333 0.946939C5.32222 0.835829 5.17778 0.780272 5 0.780272C4.82222 0.780272 4.67778 0.835829 4.56667 0.946939C4.45556 1.05805 4.4 1.2025 4.4 1.38027V2.31361H2.6C1.88889 2.31361 1.27778 2.56916 0.766667 3.08027C0.255556 3.59138 0 4.2025 0 4.91361V18.1803C0 18.8914 0.255556 19.5025 0.766667 20.0136C1.27778 20.5247 1.88889 20.7803 2.6 20.7803H17.4C18.1111 20.7803 18.7222 20.5247 19.2333 20.0136C19.7444 19.5025 20 18.8914 20 18.1803V4.91361C20 4.2025 19.7444 3.59138 19.2333 3.08027C18.7222 2.56916 18.1111 2.31361 17.4 2.31361ZM2.6 3.58027H4.4V4.24694C4.4 4.38027 4.45556 4.51361 4.56667 4.64694C4.67778 4.78027 4.82222 4.84694 5 4.84694C5.17778 4.84694 5.32222 4.78027 5.43333 4.64694C5.54444 4.51361 5.6 4.38027 5.6 4.24694V3.58027H14.4V4.24694C14.4 4.38027 14.4556 4.51361 14.5667 4.64694C14.6778 4.78027 14.8222 4.84694 15 4.84694C15.1778 4.84694 15.3222 4.78027 15.4333 4.64694C15.5444 4.51361 15.6 4.38027 15.6 4.24694V3.58027H17.4C17.8 3.58027 18.1222 3.71361 18.3667 3.98027C18.6111 4.24694 18.7333 4.55805 18.7333 4.91361V6.38027H1.26667V4.91361C1.26667 4.55805 1.38889 4.24694 1.63333 3.98027C1.87778 3.71361 2.2 3.58027 2.6 3.58027ZM17.4 19.5136H2.6C2.2 19.5136 1.87778 19.3914 1.63333 19.1469C1.38889 18.9025 1.26667 18.5803 1.26667 18.1803V7.64694H18.7333V18.1803C18.7333 18.5803 18.6111 18.9025 18.3667 19.1469C18.1222 19.3914 17.8 19.5136 17.4 19.5136Z" fill="#5751E1"/>
</svg>
