<svg width="21" height="20" viewBox="0 0 21 20" fill="none" xmlns="http://www.w3.org/2000/svg">
<path d="M10.7188 0.000488281C5.25208 0.000488281 0.71875 4.53382 0.71875 10.0005C0.71875 15.4672 5.25208 20.0005 10.7188 20.0005C16.1854 20.0005 20.7188 15.4672 20.7188 10.0005C20.7188 4.53382 16.1854 0.000488281 10.7188 0.000488281ZM10.7188 2.80049C12.5854 2.80049 14.0521 4.26716 14.0521 6.00049C14.0521 7.73382 12.5854 9.33382 10.7188 9.33382C8.85208 9.33382 7.38542 7.86716 7.38542 6.00049C7.38542 4.13382 8.85208 2.80049 10.7188 2.80049ZM10.7188 18.0005C7.91875 18.0005 5.51875 16.6672 4.05208 14.5338C5.25208 12.8005 8.71875 12.0005 10.7188 12.0005C12.7188 12.0005 16.1854 12.8005 17.3854 14.5338C15.9188 16.6672 13.5188 18.0005 10.7188 18.0005Z" fill="#102136"/>
</svg>
