<svg width="31" height="31" viewBox="0 0 31 31" fill="none" xmlns="http://www.w3.org/2000/svg">
<rect x="0.5" y="0.5" width="30" height="30" rx="15" fill="#CD201F"/>
<path d="M23.3443 11.5371C23.6959 12.7676 23.6959 15.4043 23.6959 15.4043C23.6959 15.4043 23.6959 18.0117 23.3443 19.2715C23.1685 19.9746 22.6119 20.502 21.9381 20.6777C20.6783 21 15.6978 21 15.6978 21C15.6978 21 10.6881 21 9.42831 20.6777C8.75448 20.502 8.19784 19.9746 8.02206 19.2715C7.6705 18.0117 7.6705 15.4043 7.6705 15.4043C7.6705 15.4043 7.6705 12.7676 8.02206 11.5371C8.19784 10.834 8.75448 10.2773 9.42831 10.1016C10.6881 9.75 15.6978 9.75 15.6978 9.75C15.6978 9.75 20.6783 9.75 21.9381 10.1016C22.6119 10.2773 23.1685 10.834 23.3443 11.5371ZM14.0572 17.7773L18.2174 15.4043L14.0572 13.0312V17.7773Z" fill="white"/>
</svg>
