<svg width="31" height="31" viewBox="0 0 31 31" fill="none" xmlns="http://www.w3.org/2000/svg">
<rect x="0.5" y="0.5" width="30" height="30" rx="15" fill="#3B5998"/>
<path d="M22.9531 15.375C22.9531 19.0078 20.2871 22.0254 16.8008 22.5527V17.4844H18.5L18.8223 15.375H16.8008V14.0273C16.8008 13.4414 17.0938 12.8848 18.002 12.8848H18.9102V11.0977C18.9102 11.0977 18.0898 10.9512 17.2695 10.9512C15.6289 10.9512 14.5449 11.9766 14.5449 13.793V15.375H12.6992V17.4844H14.5449V22.5527C11.0586 22.0254 8.42188 19.0078 8.42188 15.375C8.42188 11.3613 11.6738 8.10938 15.6875 8.10938C19.7012 8.10938 22.9531 11.3613 22.9531 15.375Z" fill="white"/>
</svg>
