<svg width="59" height="20" viewBox="0 0 59 20" fill="none" xmlns="http://www.w3.org/2000/svg">
<path d="M0.718031 8.40262C0.718031 7.01862 0.966031 5.93462 1.46203 5.15062C1.96603 4.36662 2.79803 3.97462 3.95803 3.97462C5.11803 3.97462 5.94603 4.36662 6.44203 5.15062C6.94603 5.93462 7.19803 7.01862 7.19803 8.40262C7.19803 9.79462 6.94603 10.8866 6.44203 11.6786C5.94603 12.4706 5.11803 12.8666 3.95803 12.8666C2.79803 12.8666 1.96603 12.4706 1.46203 11.6786C0.966031 10.8866 0.718031 9.79462 0.718031 8.40262ZM5.54203 8.40262C5.54203 7.81062 5.50203 7.31462 5.42203 6.91462C5.35003 6.50662 5.19803 6.17462 4.96603 5.91862C4.74203 5.66262 4.40603 5.53462 3.95803 5.53462C3.51003 5.53462 3.17003 5.66262 2.93803 5.91862C2.71403 6.17462 2.56203 6.50662 2.48203 6.91462C2.41003 7.31462 2.37403 7.81062 2.37403 8.40262C2.37403 9.01062 2.41003 9.52262 2.48203 9.93862C2.55403 10.3466 2.70603 10.6786 2.93803 10.9346C3.17003 11.1826 3.51003 11.3066 3.95803 11.3066C4.40603 11.3066 4.74603 11.1826 4.97803 10.9346C5.21003 10.6786 5.36203 10.3466 5.43403 9.93862C5.50603 9.52262 5.54203 9.01062 5.54203 8.40262ZM9.41184 12.9746C9.10784 12.9746 8.85584 12.8826 8.65584 12.6986C8.46384 12.5066 8.36784 12.2706 8.36784 11.9906C8.36784 11.7106 8.46384 11.4786 8.65584 11.2946C8.85584 11.1026 9.10784 11.0066 9.41184 11.0066C9.70784 11.0066 9.95184 11.1026 10.1438 11.2946C10.3358 11.4786 10.4318 11.7106 10.4318 11.9906C10.4318 12.2706 10.3358 12.5066 10.1438 12.6986C9.95184 12.8826 9.70784 12.9746 9.41184 12.9746ZM11.593 8.40262C11.593 7.01862 11.841 5.93462 12.337 5.15062C12.841 4.36662 13.673 3.97462 14.833 3.97462C15.993 3.97462 16.821 4.36662 17.317 5.15062C17.821 5.93462 18.073 7.01862 18.073 8.40262C18.073 9.79462 17.821 10.8866 17.317 11.6786C16.821 12.4706 15.993 12.8666 14.833 12.8666C13.673 12.8666 12.841 12.4706 12.337 11.6786C11.841 10.8866 11.593 9.79462 11.593 8.40262ZM16.417 8.40262C16.417 7.81062 16.377 7.31462 16.297 6.91462C16.225 6.50662 16.073 6.17462 15.841 5.91862C15.617 5.66262 15.281 5.53462 14.833 5.53462C14.385 5.53462 14.045 5.66262 13.813 5.91862C13.589 6.17462 13.437 6.50662 13.357 6.91462C13.285 7.31462 13.249 7.81062 13.249 8.40262C13.249 9.01062 13.285 9.52262 13.357 9.93862C13.429 10.3466 13.581 10.6786 13.813 10.9346C14.045 11.1826 14.385 11.3066 14.833 11.3066C15.281 11.3066 15.621 11.1826 15.853 10.9346C16.085 10.6786 16.237 10.3466 16.309 9.93862C16.381 9.52262 16.417 9.01062 16.417 8.40262ZM28.3782 10.4786C28.3782 10.8946 28.2702 11.2866 28.0542 11.6546C27.8462 12.0146 27.5342 12.3146 27.1182 12.5546C26.7102 12.7866 26.2262 12.9226 25.6662 12.9626V13.9346H24.8982V12.9506C24.0982 12.8786 23.4542 12.6386 22.9662 12.2306C22.4782 11.8146 22.2262 11.2546 22.2102 10.5506H24.0102C24.0582 11.1266 24.3542 11.4746 24.8982 11.5946V9.30262C24.3222 9.15862 23.8582 9.01462 23.5062 8.87062C23.1542 8.72662 22.8502 8.49462 22.5942 8.17462C22.3382 7.85462 22.2102 7.41862 22.2102 6.86662C22.2102 6.17062 22.4582 5.60262 22.9542 5.16262C23.4582 4.72262 24.1062 4.47062 24.8982 4.40662V3.43462H25.6662V4.40662C26.4342 4.47062 27.0462 4.70262 27.5022 5.10262C27.9662 5.50262 28.2262 6.05462 28.2822 6.75862H26.4702C26.4462 6.52662 26.3622 6.32662 26.2182 6.15862C26.0822 5.98262 25.8982 5.85862 25.6662 5.78662V8.05462C26.2662 8.20662 26.7382 8.35462 27.0822 8.49862C27.4342 8.63462 27.7382 8.86262 27.9942 9.18262C28.2502 9.49462 28.3782 9.92662 28.3782 10.4786ZM23.9622 6.78262C23.9622 7.04662 24.0422 7.26262 24.2022 7.43062C24.3622 7.59062 24.5942 7.72262 24.8982 7.82662V5.75062C24.6102 5.79062 24.3822 5.89862 24.2142 6.07462C24.0462 6.25062 23.9622 6.48662 23.9622 6.78262ZM25.6662 11.6186C25.9702 11.5626 26.2062 11.4386 26.3742 11.2466C26.5502 11.0546 26.6382 10.8226 26.6382 10.5506C26.6382 10.2866 26.5542 10.0746 26.3862 9.91462C26.2182 9.75462 25.9782 9.62262 25.6662 9.51862V11.6186Z" fill="#102136"/>
<g clip-path="url(#clip0_8513_767)">
<path d="M47.9242 8.88057C47.9242 8.48057 48.2242 8.08057 48.7242 8.08057C49.2242 8.08057 49.5242 8.38057 49.5242 8.88057C49.5242 9.88057 50.3242 10.6806 51.3242 10.6806C52.3242 10.6806 53.1242 9.88057 53.1242 8.88057C53.1242 8.48057 53.4242 8.08057 53.9242 8.08057C54.4242 8.08057 54.7242 8.38057 54.7242 8.88057C54.7242 10.6806 53.2242 12.0806 51.5242 12.0806C49.8242 12.0806 47.9242 10.6806 47.9242 8.88057ZM57.9242 6.18057V15.8806C57.9242 16.8806 57.1242 17.5806 56.1242 17.5806H46.1242C45.1242 17.5806 44.3242 16.7806 44.3242 15.8806V6.18057L46.8242 2.58057H55.6242L57.9242 6.18057ZM46.6242 5.58057H55.8242L54.8242 4.08057H47.6242L46.6242 5.58057ZM56.5242 7.08057H45.9242V15.8806C45.9242 15.9806 46.0242 16.0806 46.1242 16.0806H56.1242C56.2242 16.0806 56.3242 15.9806 56.3242 15.8806V7.08057H56.5242Z" fill="#102136"/>
</g>
<defs>
<clipPath id="clip0_8513_767">
<rect width="15" height="15" fill="white" transform="translate(43.7227 2.58057)"/>
</clipPath>
</defs>
</svg>
