<svg width="16" height="16" viewBox="0 0 16 16" fill="none" xmlns="http://www.w3.org/2000/svg">
<path d="M14.882 14.2005L12.082 11.5005C12.982 10.3005 13.582 8.90049 13.582 7.30049C13.582 3.60049 10.582 0.500488 6.78203 0.500488C2.98203 0.500488 0.0820312 3.50049 0.0820312 7.30049C0.0820312 11.1005 3.08203 14.1005 6.88203 14.1005C8.48203 14.1005 9.98203 13.5005 11.082 12.6005L13.882 15.4005C13.982 15.5005 14.182 15.6005 14.382 15.6005C14.582 15.6005 14.782 15.5005 14.882 15.4005C15.182 15.0005 15.182 14.5005 14.882 14.2005ZM1.58203 7.30049C1.58203 4.40049 3.98203 2.10049 6.78203 2.10049C9.58203 2.10049 12.082 4.40049 12.082 7.30049C12.082 10.2005 9.68203 12.5005 6.88203 12.5005C4.08203 12.5005 1.58203 10.1005 1.58203 7.30049Z" fill="#102136"/>
</svg>
