<svg width="15" height="15" viewBox="0 0 15 15" fill="none" xmlns="http://www.w3.org/2000/svg">
<path d="M7.38672 0.109375C11.4004 0.109375 14.6523 3.36133 14.6523 7.375C14.6523 11.3887 11.4004 14.6406 7.38672 14.6406C3.37305 14.6406 0.121094 11.3887 0.121094 7.375C0.121094 3.36133 3.37305 0.109375 7.38672 0.109375ZM3.98828 8.66406H7.38672V10.7441C7.38672 11.0664 7.76758 11.2129 7.97266 11.0078L11.3125 7.63867C11.459 7.49219 11.459 7.28711 11.3125 7.14062L7.97266 3.77148C7.73828 3.53711 7.38672 3.71289 7.38672 4.03516V6.08594H3.98828C3.7832 6.08594 3.63672 6.26172 3.63672 6.4375V8.3125C3.63672 8.51758 3.7832 8.66406 3.98828 8.66406Z" fill="black"/>
</svg>
