<svg width="14" height="14" viewBox="0 0 14 14" fill="none" xmlns="http://www.w3.org/2000/svg">
<path d="M13.5539 7.125C13.5539 10.6035 10.7355 13.4219 7.25703 13.4219C3.77852 13.4219 0.960156 10.6035 0.960156 7.125C0.960156 3.64648 3.77852 0.828125 7.25703 0.828125C10.7355 0.828125 13.5539 3.64648 13.5539 7.125ZM6.13984 4.17969V7.125H4.33711C4.05781 7.125 3.93086 7.45508 4.10859 7.6582L7.02852 10.5527C7.15547 10.6797 7.3332 10.6797 7.46016 10.5527L10.3801 7.6582C10.5578 7.45508 10.4309 7.125 10.1516 7.125H8.37422V4.17969C8.37422 4.02734 8.22187 3.875 8.06953 3.875H6.44453C6.2668 3.875 6.13984 4.02734 6.13984 4.17969Z" fill="white"/>
</svg>
